<?xml version="1.0" encoding="utf-8"?>
<!-- Generator: Adobe Illustrator 25.4.0, SVG Export Plug-In . SVG Version: 6.00 Build 0)  -->
<svg version="1.1" id="Layer_1" xmlns="http://www.w3.org/2000/svg" xmlns:xlink="http://www.w3.org/1999/xlink" x="0px" y="0px"
	 viewBox="0 0 144 40.1" style="enable-background:new 0 0 144 40.1;" xml:space="preserve">
<style type="text/css">
	.st0{fill:#F44336;}
</style>
<path class="st0" d="M15,0.8c2.1,0,3.9,0,6,0c0,12.3,0,24.3,0,36.6c-2.4,0.3-4.8,0.6-6.9,0.9C11.1,30.8,6,17.9,6,17.9s0,12.9,0,21.3
	c1.2,0-0.6,0-6,0.9C0,27.2,0,14,0,1.1c2.4,0,6,0,6,0L15,23C15,23,15,9.2,15,0.8z M44.1,6.8c0-1.8,0-4.2,0-6c-5.7,0-11.4,0-17.1,0
	c0,12,0,24,0,36c5.7-0.6,11.4-1.2,17.1-1.8c0-1.8,0-4.2,0-6c-3.6,0.3-7.2,0.3-11.1,1.2c0-3.3,0-5.1,0-8.4c2.7,0,6.3,0,9,0
	c0-1.8,0-4.2,0-6c-2.7,0-6.3,0-9,0c0-3.3,0-5.7,0-9C34.8,7.1,42.6,7.1,44.1,6.8z M48,6.8c0.3,0,5.7,0,6,0c0,9.6,0,18,0,27.6
	c2.1,0,3.9,0,6-0.3c0-9.6,0-17.7,0-27.3c2.1,0,3.9,0,6,0c0-1.8,0-4.2,0-6c-6.3,0-11.7,0-18,0C48,2.6,48,5,48,6.8z M85.8,0.8
	c-5.7,0-11.1,0-16.8,0c0,11.4,0,21.6,0,33c0.6,0,1.2,0,1.8,0c1.2,0,2.7,0,4.2,0c0-4.8,0-7.2,0-12c0.3,0,7.2,0,8.1,0c0-1.8,0-4.2,0-6
	c-0.9,0-7.8,0-8.1,0c0-3,0-6,0-9c0.6,0,9.3,0,10.8,0C85.8,5.3,85.8,2.6,85.8,0.8z M96,29.3c0-9.9,0-18.6,0-28.5c-2.1,0-3.9,0-6,0
	c0,11.4,0,22.2,0,33.6c5.4,0.3,10.8,0.6,16.2,1.2c0-1.8,0-3.9,0-5.7C102.9,29.6,99.3,29.3,96,29.3z M111,35.9c2.1,0.3,3.9,0.3,6,0.6
	c0-12,0-23.7,0-35.7c-2.1,0-3.9,0-6,0C111,12.8,111,24.2,111,35.9z M136.2,19.4c2.7-6,5.1-12,7.8-18.3c-2.1,0-4.5,0-6.6,0
	c-1.5,3.9-2.7,6.6-4.2,10.2c-1.5-3.9-2.4-6.6-3.9-10.2c-2.1,0-4.5,0-6.6,0c2.4,6,4.5,12,7.2,18.3c-2.7,6-5.1,12-7.8,18
	c2.1,0.3,4.2,0.6,6.3,0.9c1.5-3.9,3-6.6,4.5-10.5c1.5,4.2,3,7.2,4.5,11.4c2.1,0.3,4.8,0.6,6.9,0.9C141.3,32.9,138.6,25.7,136.2,19.4
	z"/>
</svg>
